<svg width="18" height="18" viewBox="0 0 18 18" fill="none" xmlns="http://www.w3.org/2000/svg">
<path fill-rule="evenodd" clip-rule="evenodd" d="M8.99994 0C4.03139 0 -6.10352e-05 4.03145 -6.10352e-05 9C-6.10352e-05 13.9686 4.03139 18 8.99994 18C13.9587 18 17.9999 13.9686 17.9999 9C17.9999 4.03145 13.9587 0 8.99994 0ZM14.9446 4.14859C16.0183 5.45662 16.6626 7.1258 16.6821 8.9317C16.4283 8.8829 13.8903 8.3655 11.3329 8.6876C11.2743 8.5607 11.2255 8.4241 11.1669 8.2874C11.0107 7.9165 10.8351 7.5358 10.6593 7.1746C13.4901 6.0228 14.7786 4.36334 14.9446 4.14859ZM8.99994 1.32755C10.9522 1.32755 12.7385 2.05966 14.0954 3.26031C13.9587 3.45553 12.7971 5.00759 10.0639 6.03253C8.80474 3.71909 7.40884 1.82538 7.19414 1.53254C7.76994 1.39588 8.37524 1.32755 8.99994 1.32755ZM5.7299 2.04989C5.93488 2.32321 7.30144 4.22668 8.58024 6.49131C4.98801 7.448 1.81556 7.4284 1.47391 7.4284C1.97174 5.04664 3.58237 3.06507 5.7299 2.04989ZM1.30797 9.0098C1.30797 8.9317 1.30797 8.8536 1.30797 8.7755C1.63985 8.7852 5.3687 8.8341 9.20494 7.6822C9.42944 8.1117 9.63444 8.551 9.82964 8.9902C9.73204 9.0195 9.62464 9.0488 9.52704 9.0781C5.56393 10.3568 3.45547 13.8514 3.27977 14.1442C2.05959 12.7874 1.30797 10.9816 1.30797 9.0098ZM8.99994 16.692C7.22334 16.692 5.58346 16.0868 4.28519 15.0716C4.42185 14.7885 5.98365 11.782 10.3177 10.269C10.3372 10.2592 10.347 10.2592 10.3665 10.2495C11.45 13.051 11.8893 15.4034 12.0064 16.077C11.0791 16.4772 10.0639 16.692 8.99994 16.692ZM13.2851 15.3742C13.2071 14.9056 12.7971 12.6605 11.7916 9.898C14.2027 9.5173 16.3112 10.1421 16.5748 10.23C16.2429 12.3677 15.0129 14.2126 13.2851 15.3742Z" fill="black"/>
</svg>
